<?xml version="1.0" standalone="no"?>
 <!DOCTYPE svg PUBLIC "-//W3C//DTD SVG 1.1//EN" 
 "http://www.w3.org/Graphics/SVG/1.1/DTD/svg11.dtd"> 
<svg xmlns="http://www.w3.org/2000/svg" version="1.1" 
    width="29.7002cm" height="21.0007cm" viewBox="0 0 116930 82680 ">
<title>SVG Picture created as vrlaCharger-F_Cu.svg date 2019/10/17 13:14:30 </title>
  <desc>Picture generated by PCBNEW </desc>
<g style="fill:#000000; fill-opacity:1;stroke:#000000; stroke-opacity:1;
stroke-linecap:round; stroke-linejoin:round; "
 transform="translate(0 0) scale(1 1)">
</g>
<g style="fill:#000000; fill-opacity:0.0; 
stroke:#000000; stroke-width:-0.000393701; stroke-opacity:1; 
stroke-linecap:round; stroke-linejoin:round;">
</g>
<g style="fill:#000000; fill-opacity:0.0; 
stroke:#000000; stroke-width:78.7402; stroke-opacity:1; 
stroke-linecap:round; stroke-linejoin:round;">
<path d="M23172 51654
L23172 51260
" />
<path d="M23359 51654
L23359 51260
L23584 51654
L23584 51260
" />
<path d="M23772 51504
L24071 51504
" />
<path d="M22384 47520
L22384 47126
" />
<path d="M22572 47520
L22572 47126
L22797 47520
L22797 47126
" />
<path d="M22984 47370
L23284 47370
" />
<path d="M23134 47520
L23134 47220
" />
<path d="M36567 46930
L36642 46930
L36679 46948
L36717 46986
L36736 47061
L36736 47192
L36717 47267
L36679 47305
L36642 47323
L36567 47323
L36529 47305
L36492 47267
L36473 47192
L36473 47061
L36492 46986
L36529 46948
L36567 46930
" />
<path d="M36904 46930
L36904 47248
L36923 47286
L36942 47305
L36979 47323
L37054 47323
L37092 47305
L37110 47286
L37129 47248
L37129 46930
" />
<path d="M37260 46930
L37485 46930
" />
<path d="M37373 47323
L37373 46930
" />
<path d="M37617 47173
L37917 47173
" />
<path d="M37767 47323
L37767 47023
" />
<path d="M36567 51457
L36642 51457
L36679 51476
L36717 51513
L36736 51588
L36736 51720
L36717 51795
L36679 51832
L36642 51851
L36567 51851
L36529 51832
L36492 51795
L36473 51720
L36473 51588
L36492 51513
L36529 51476
L36567 51457
" />
<path d="M36904 51457
L36904 51776
L36923 51813
L36942 51832
L36979 51851
L37054 51851
L37092 51832
L37110 51813
L37129 51776
L37129 51457
" />
<path d="M37260 51457
L37485 51457
" />
<path d="M37373 51851
L37373 51457
" />
<path d="M37617 51701
L37917 51701
" />
</g>
<g style="fill:#000000; fill-opacity:0.0; 
stroke:#000000; stroke-width:59.0551; stroke-opacity:1; 
stroke-linecap:round; stroke-linejoin:round;">
<path d="M21653 44094
L21653 54724
" />
<path d="M38582 44094
L21653 44094
" />
<path d="M38582 54724
L38582 44094
" />
<path d="M21653 54724
L38582 54724
" />
<g >
</g>
<g style="fill:#000000; fill-opacity:0.0; 
stroke:#000000; stroke-width:944.882; stroke-opacity:1; 
stroke-linecap:round; stroke-linejoin:round;">
<path d="M27165 47740
L27165 47740
" />
</g>
<g style="fill:#000000; fill-opacity:1.0; 
stroke:#000000; stroke-width:0; stroke-opacity:1; 
stroke-linecap:round; stroke-linejoin:round;">
<circle cx="27165.4" cy="53740.2" r="472.441" /> 
</g>
<g style="fill:#000000; fill-opacity:1.0; 
stroke:#000000; stroke-width:39.3701; stroke-opacity:1; 
stroke-linecap:round; stroke-linejoin:round;">
</g>
<g >
</g>
<g style="fill:#000000; fill-opacity:1.0; 
stroke:#000000; stroke-width:39.3701; stroke-opacity:1; 
stroke-linecap:round; stroke-linejoin:round;">
</g>
<g style="fill:#000000; fill-opacity:1.0; 
stroke:#000000; stroke-width:0; stroke-opacity:1; 
stroke-linecap:round; stroke-linejoin:round;">
<path style="fill:#000000; fill-opacity:1.0; 
stroke:#000000; stroke-width:0; stroke-opacity:1; 
stroke-linecap:round; stroke-linejoin:round;fill-rule:evenodd;"
d="M 30592,45197
30601,45198
30611,45200
30619,45204
30628,45208
30636,45213
30644,45218
30651,45224
30657,45231
30662,45239
30667,45247
30671,45256
30675,45264
30677,45274
30678,45283
30679,45292
30679,45652
30678,45661
30677,45670
30675,45679
30671,45688
30667,45697
30662,45705
30657,45712
30651,45719
30644,45726
30636,45731
30628,45736
30619,45740
30611,45743
30601,45746
30592,45747
30583,45748
30391,45748
30381,45747
30372,45746
30363,45743
30354,45740
30346,45736
30337,45731
30330,45726
30323,45719
30317,45712
30311,45705
30306,45697
30302,45688
30299,45679
30297,45670
30295,45661
30295,45652
30295,45292
30295,45283
30297,45274
30299,45264
30302,45256
30306,45247
30311,45239
30317,45231
30323,45224
30330,45218
30337,45213
30346,45208
30354,45204
30363,45200
30372,45198
30381,45197
30391,45196
30583,45196
30592,45197
Z" /> 
<path style="fill:#000000; fill-opacity:1.0; 
stroke:#000000; stroke-width:0; stroke-opacity:1; 
stroke-linecap:round; stroke-linejoin:round;fill-rule:evenodd;"
d="M 29854,45197
29863,45198
29872,45200
29881,45204
29890,45208
29898,45213
29905,45218
29912,45224
29919,45231
29924,45239
29929,45247
29933,45256
29936,45264
29939,45274
29940,45283
29940,45292
29940,45652
29940,45661
29939,45670
29936,45679
29933,45688
29929,45697
29924,45705
29919,45712
29912,45719
29905,45726
29898,45731
29890,45736
29881,45740
29872,45743
29863,45746
29854,45747
29844,45748
29653,45748
29643,45747
29634,45746
29625,45743
29616,45740
29607,45736
29599,45731
29592,45726
29585,45719
29578,45712
29573,45705
29568,45697
29564,45688
29561,45679
29558,45670
29557,45661
29557,45652
29557,45292
29557,45283
29558,45274
29561,45264
29564,45256
29568,45247
29573,45239
29578,45231
29585,45224
29592,45218
29599,45213
29607,45208
29616,45204
29625,45200
29634,45198
29643,45197
29653,45196
29844,45196
29854,45197
Z" /> 
</g>
<g >
</g>
<g style="fill:#000000; fill-opacity:1.0; 
stroke:#000000; stroke-width:0; stroke-opacity:1; 
stroke-linecap:round; stroke-linejoin:round;">
<path style="fill:#000000; fill-opacity:1.0; 
stroke:#000000; stroke-width:0; stroke-opacity:1; 
stroke-linecap:round; stroke-linejoin:round;fill-rule:evenodd;"
d="M 29362,47756
29371,47757
29380,47760
29389,47763
29398,47767
29406,47772
29413,47777
29420,47784
29427,47790
29432,47798
29437,47806
29441,47815
29444,47824
29446,47833
29448,47842
29448,47851
29448,48211
29448,48220
29446,48229
29444,48238
29441,48247
29437,48256
29432,48264
29427,48272
29420,48278
29413,48285
29406,48290
29398,48295
29389,48299
29380,48302
29371,48305
29362,48306
29352,48307
29160,48307
29151,48306
29142,48305
29133,48302
29124,48299
29115,48295
29107,48290
29100,48285
29093,48278
29086,48272
29081,48264
29076,48256
29072,48247
29069,48238
29066,48229
29065,48220
29064,48211
29064,47851
29065,47842
29066,47833
29069,47824
29072,47815
29076,47806
29081,47798
29086,47790
29093,47784
29100,47777
29107,47772
29115,47767
29124,47763
29133,47760
29142,47757
29151,47756
29160,47755
29352,47755
29362,47756
Z" /> 
<path style="fill:#000000; fill-opacity:1.0; 
stroke:#000000; stroke-width:0; stroke-opacity:1; 
stroke-linecap:round; stroke-linejoin:round;fill-rule:evenodd;"
d="M 30100,47756
30109,47757
30118,47760
30127,47763
30136,47767
30144,47772
30151,47777
30158,47784
30165,47790
30170,47798
30175,47806
30179,47815
30182,47824
30185,47833
30186,47842
30187,47851
30187,48211
30186,48220
30185,48229
30182,48238
30179,48247
30175,48256
30170,48264
30165,48272
30158,48278
30151,48285
30144,48290
30136,48295
30127,48299
30118,48302
30109,48305
30100,48306
30091,48307
29899,48307
29889,48306
29880,48305
29871,48302
29862,48299
29853,48295
29845,48290
29838,48285
29831,48278
29824,48272
29819,48264
29814,48256
29810,48247
29807,48238
29804,48229
29803,48220
29803,48211
29803,47851
29803,47842
29804,47833
29807,47824
29810,47815
29814,47806
29819,47798
29824,47790
29831,47784
29838,47777
29845,47772
29853,47767
29862,47763
29871,47760
29880,47757
29889,47756
29899,47755
30091,47755
30100,47756
Z" /> 
</g>
<g >
</g>
<g style="fill:#000000; fill-opacity:1.0; 
stroke:#000000; stroke-width:0; stroke-opacity:1; 
stroke-linecap:round; stroke-linejoin:round;">
<path style="fill:#000000; fill-opacity:1.0; 
stroke:#000000; stroke-width:0; stroke-opacity:1; 
stroke-linecap:round; stroke-linejoin:round;fill-rule:evenodd;"
d="M 27027,45118
27696,45118
27696,45629
27027,45629
27027,45118
Z" /> 
<path style="fill:#000000; fill-opacity:1.0; 
stroke:#000000; stroke-width:0; stroke-opacity:1; 
stroke-linecap:round; stroke-linejoin:round;fill-rule:evenodd;"
d="M 27027,46496
27696,46496
27696,47007
27027,47007
27027,46496
Z" /> 
</g>
<g >
</g>
<g style="fill:#000000; fill-opacity:1.0; 
stroke:#000000; stroke-width:0; stroke-opacity:1; 
stroke-linecap:round; stroke-linejoin:round;">
<path style="fill:#000000; fill-opacity:1.0; 
stroke:#000000; stroke-width:0; stroke-opacity:1; 
stroke-linecap:round; stroke-linejoin:round;fill-rule:evenodd;"
d="M 26074,51998
26084,51999
26093,52002
26102,52005
26110,52009
26118,52014
26126,52019
26133,52026
26139,52033
26145,52040
26150,52048
26154,52057
26157,52066
26159,52075
26160,52084
26161,52093
26161,52285
26160,52295
26159,52304
26157,52313
26154,52322
26150,52331
26145,52339
26139,52346
26133,52353
26126,52360
26118,52365
26110,52370
26102,52374
26093,52377
26084,52380
26074,52381
26065,52381
25706,52381
25696,52381
25687,52380
25678,52377
25669,52374
25660,52370
25652,52365
25645,52360
25638,52353
25632,52346
25626,52339
25621,52331
25617,52322
25614,52313
25612,52304
25610,52295
25610,52285
25610,52093
25610,52084
25612,52075
25614,52066
25617,52057
25621,52048
25626,52040
25632,52033
25638,52026
25645,52019
25652,52014
25660,52009
25669,52005
25678,52002
25687,51999
25696,51998
25706,51998
26065,51998
26074,51998
Z" /> 
<path style="fill:#000000; fill-opacity:1.0; 
stroke:#000000; stroke-width:0; stroke-opacity:1; 
stroke-linecap:round; stroke-linejoin:round;fill-rule:evenodd;"
d="M 26074,52736
26084,52738
26093,52740
26102,52743
26110,52747
26118,52752
26126,52758
26133,52764
26139,52771
26145,52778
26150,52786
26154,52795
26157,52804
26159,52813
26160,52822
26161,52832
26161,53024
26160,53033
26159,53042
26157,53051
26154,53060
26150,53069
26145,53077
26139,53084
26133,53091
26126,53098
26118,53103
26110,53108
26102,53112
26093,53115
26084,53118
26074,53119
26065,53120
25706,53120
25696,53119
25687,53118
25678,53115
25669,53112
25660,53108
25652,53103
25645,53098
25638,53091
25632,53084
25626,53077
25621,53069
25617,53060
25614,53051
25612,53042
25610,53033
25610,53024
25610,52832
25610,52822
25612,52813
25614,52804
25617,52795
25621,52786
25626,52778
25632,52771
25638,52764
25645,52758
25652,52752
25660,52747
25669,52743
25678,52740
25687,52738
25696,52736
25706,52736
26065,52736
26074,52736
Z" /> 
</g>
<g >
</g>
<g style="fill:#000000; fill-opacity:1.0; 
stroke:#000000; stroke-width:0; stroke-opacity:1; 
stroke-linecap:round; stroke-linejoin:round;">
<path style="fill:#000000; fill-opacity:1.0; 
stroke:#000000; stroke-width:0; stroke-opacity:1; 
stroke-linecap:round; stroke-linejoin:round;fill-rule:evenodd;"
d="M 30503,49291
30513,49293
30522,49295
30531,49298
30539,49302
30547,49307
30555,49313
30562,49319
30568,49326
30574,49333
30579,49342
30583,49350
30586,49359
30588,49368
30590,49377
30590,49387
30590,49579
30590,49588
30588,49597
30586,49607
30583,49615
30579,49624
30574,49632
30568,49640
30562,49647
30555,49653
30547,49659
30539,49663
30531,49667
30522,49671
30513,49673
30503,49674
30494,49675
30135,49675
30125,49674
30116,49673
30107,49671
30098,49667
30090,49663
30082,49659
30074,49653
30067,49647
30061,49640
30055,49632
30050,49624
30046,49615
30043,49607
30041,49597
30039,49588
30039,49579
30039,49387
30039,49377
30041,49368
30043,49359
30046,49350
30050,49342
30055,49333
30061,49326
30067,49319
30074,49313
30082,49307
30090,49302
30098,49298
30107,49295
30116,49293
30125,49291
30135,49291
30494,49291
30503,49291
Z" /> 
<path style="fill:#000000; fill-opacity:1.0; 
stroke:#000000; stroke-width:0; stroke-opacity:1; 
stroke-linecap:round; stroke-linejoin:round;fill-rule:evenodd;"
d="M 30503,48553
30513,48554
30522,48557
30531,48560
30539,48564
30547,48569
30555,48574
30562,48581
30568,48588
30574,48595
30579,48603
30583,48612
30586,48621
30588,48630
30590,48639
30590,48649
30590,48841
30590,48850
30588,48859
30586,48868
30583,48877
30579,48886
30574,48894
30568,48901
30562,48908
30555,48915
30547,48920
30539,48925
30531,48929
30522,48932
30513,48935
30503,48936
30494,48937
30135,48937
30125,48936
30116,48935
30107,48932
30098,48929
30090,48925
30082,48920
30074,48915
30067,48908
30061,48901
30055,48894
30050,48886
30046,48877
30043,48868
30041,48859
30039,48850
30039,48841
30039,48649
30039,48639
30041,48630
30043,48621
30046,48612
30050,48603
30055,48595
30061,48588
30067,48581
30074,48574
30082,48569
30090,48564
30098,48560
30107,48557
30116,48554
30125,48553
30135,48553
30494,48553
30503,48553
Z" /> 
</g>
<g >
</g>
<g style="fill:#000000; fill-opacity:1.0; 
stroke:#000000; stroke-width:0; stroke-opacity:1; 
stroke-linecap:round; stroke-linejoin:round;">
<path style="fill:#000000; fill-opacity:1.0; 
stroke:#000000; stroke-width:0; stroke-opacity:1; 
stroke-linecap:round; stroke-linejoin:round;fill-rule:evenodd;"
d="M 24133,50905
23110,50905
23110,49881
24133,49881
24133,50905
Z" /> 
<circle cx="23622" cy="48393.7" r="511.811" /> 
</g>
<g style="fill:#000000; fill-opacity:1.0; 
stroke:#000000; stroke-width:39.3701; stroke-opacity:1; 
stroke-linecap:round; stroke-linejoin:round;">
</g>
<g >
</g>
<g style="fill:#000000; fill-opacity:1.0; 
stroke:#000000; stroke-width:39.3701; stroke-opacity:1; 
stroke-linecap:round; stroke-linejoin:round;">
</g>
<g style="fill:#000000; fill-opacity:1.0; 
stroke:#000000; stroke-width:0; stroke-opacity:1; 
stroke-linecap:round; stroke-linejoin:round;">
<circle cx="37007.9" cy="50425.2" r="511.811" /> 
</g>
<g style="fill:#000000; fill-opacity:1.0; 
stroke:#000000; stroke-width:39.3701; stroke-opacity:1; 
stroke-linecap:round; stroke-linejoin:round;">
</g>
<g style="fill:#000000; fill-opacity:1.0; 
stroke:#000000; stroke-width:0; stroke-opacity:1; 
stroke-linecap:round; stroke-linejoin:round;">
<path style="fill:#000000; fill-opacity:1.0; 
stroke:#000000; stroke-width:0; stroke-opacity:1; 
stroke-linecap:round; stroke-linejoin:round;fill-rule:evenodd;"
d="M 36496,47913
37519,47913
37519,48937
36496,48937
36496,47913
Z" /> 
</g>
<g >
</g>
<g style="fill:#000000; fill-opacity:1.0; 
stroke:#000000; stroke-width:0; stroke-opacity:1; 
stroke-linecap:round; stroke-linejoin:round;">
<path style="fill:#000000; fill-opacity:1.0; 
stroke:#000000; stroke-width:0; stroke-opacity:1; 
stroke-linecap:round; stroke-linejoin:round;fill-rule:evenodd;"
d="M 25767,45019
25767,45334
25413,45334
25413,45019
25767,45019
Z" /> 
<path style="fill:#000000; fill-opacity:1.0; 
stroke:#000000; stroke-width:0; stroke-opacity:1; 
stroke-linecap:round; stroke-linejoin:round;fill-rule:evenodd;"
d="M 26555,44645
26555,44960
26200,44960
26200,44645
26555,44645
Z" /> 
<path style="fill:#000000; fill-opacity:1.0; 
stroke:#000000; stroke-width:0; stroke-opacity:1; 
stroke-linecap:round; stroke-linejoin:round;fill-rule:evenodd;"
d="M 26555,45393
26555,45708
26200,45708
26200,45393
26555,45393
Z" /> 
</g>
<g >
</g>
<g style="fill:#000000; fill-opacity:1.0; 
stroke:#000000; stroke-width:0; stroke-opacity:1; 
stroke-linecap:round; stroke-linejoin:round;">
<path style="fill:#000000; fill-opacity:1.0; 
stroke:#000000; stroke-width:0; stroke-opacity:1; 
stroke-linecap:round; stroke-linejoin:round;fill-rule:evenodd;"
d="M 29940,46279
30255,46279
30255,46633
29940,46633
29940,46279
Z" /> 
<path style="fill:#000000; fill-opacity:1.0; 
stroke:#000000; stroke-width:0; stroke-opacity:1; 
stroke-linecap:round; stroke-linejoin:round;fill-rule:evenodd;"
d="M 29192,46279
29507,46279
29507,46633
29192,46633
29192,46279
Z" /> 
<path style="fill:#000000; fill-opacity:1.0; 
stroke:#000000; stroke-width:0; stroke-opacity:1; 
stroke-linecap:round; stroke-linejoin:round;fill-rule:evenodd;"
d="M 29566,47066
29881,47066
29881,47421
29566,47421
29566,47066
Z" /> 
</g>
<g >
</g>
<g style="fill:#000000; fill-opacity:1.0; 
stroke:#000000; stroke-width:0; stroke-opacity:1; 
stroke-linecap:round; stroke-linejoin:round;">
<path style="fill:#000000; fill-opacity:1.0; 
stroke:#000000; stroke-width:0; stroke-opacity:1; 
stroke-linecap:round; stroke-linejoin:round;fill-rule:evenodd;"
d="M 28633,45797
28643,45799
28652,45801
28661,45804
28669,45808
28677,45813
28685,45819
28692,45825
28698,45832
28704,45839
28709,45847
28713,45856
28716,45865
28718,45874
28720,45883
28720,45893
28720,46085
28720,46094
28718,46103
28716,46112
28713,46121
28709,46130
28704,46138
28698,46146
28692,46152
28685,46159
28677,46164
28669,46169
28661,46173
28652,46176
28643,46179
28633,46180
28624,46181
28265,46181
28255,46180
28246,46179
28237,46176
28228,46173
28220,46169
28211,46164
28204,46159
28197,46152
28191,46146
28185,46138
28180,46130
28176,46121
28173,46112
28171,46103
28169,46094
28169,46085
28169,45893
28169,45883
28171,45874
28173,45865
28176,45856
28180,45847
28185,45839
28191,45832
28197,45825
28204,45819
28211,45813
28220,45808
28228,45804
28237,45801
28246,45799
28255,45797
28265,45797
28624,45797
28633,45797
Z" /> 
<path style="fill:#000000; fill-opacity:1.0; 
stroke:#000000; stroke-width:0; stroke-opacity:1; 
stroke-linecap:round; stroke-linejoin:round;fill-rule:evenodd;"
d="M 28633,46535
28643,46537
28652,46539
28661,46542
28669,46546
28677,46551
28685,46557
28692,46563
28698,46570
28704,46578
28709,46586
28713,46594
28716,46603
28718,46612
28720,46621
28720,46631
28720,46823
28720,46832
28718,46842
28716,46851
28713,46860
28709,46868
28704,46876
28698,46884
28692,46891
28685,46897
28677,46903
28669,46907
28661,46911
28652,46915
28643,46917
28633,46918
28624,46919
28265,46919
28255,46918
28246,46917
28237,46915
28228,46911
28220,46907
28211,46903
28204,46897
28197,46891
28191,46884
28185,46876
28180,46868
28176,46860
28173,46851
28171,46842
28169,46832
28169,46823
28169,46631
28169,46621
28171,46612
28173,46603
28176,46594
28180,46586
28185,46578
28191,46570
28197,46563
28204,46557
28211,46551
28220,46546
28228,46542
28237,46539
28246,46537
28255,46535
28265,46535
28624,46535
28633,46535
Z" /> 
</g>
<g >
</g>
<g style="fill:#000000; fill-opacity:1.0; 
stroke:#000000; stroke-width:0; stroke-opacity:1; 
stroke-linecap:round; stroke-linejoin:round;">
<path style="fill:#000000; fill-opacity:1.0; 
stroke:#000000; stroke-width:0; stroke-opacity:1; 
stroke-linecap:round; stroke-linejoin:round;fill-rule:evenodd;"
d="M 25129,53563
25139,53564
25148,53567
25157,53570
25165,53574
25173,53579
25181,53584
25188,53591
25194,53598
25200,53605
25205,53613
25209,53622
25212,53631
25214,53640
25216,53649
25216,53658
25216,54018
25216,54027
25214,54036
25212,54046
25209,54054
25205,54063
25200,54071
25194,54079
25188,54086
25181,54092
25173,54098
25165,54102
25157,54106
25148,54110
25139,54112
25129,54113
25120,54114
24928,54114
24919,54113
24909,54112
24900,54110
24891,54106
24883,54102
24875,54098
24867,54092
24860,54086
24854,54079
24848,54071
24844,54063
24839,54054
24836,54046
24834,54036
24833,54027
24832,54018
24832,53658
24833,53649
24834,53640
24836,53631
24839,53622
24844,53613
24848,53605
24854,53598
24860,53591
24867,53584
24875,53579
24883,53574
24891,53570
24900,53567
24909,53564
24919,53563
24928,53562
25120,53562
25129,53563
Z" /> 
<path style="fill:#000000; fill-opacity:1.0; 
stroke:#000000; stroke-width:0; stroke-opacity:1; 
stroke-linecap:round; stroke-linejoin:round;fill-rule:evenodd;"
d="M 25868,53563
25877,53564
25886,53567
25895,53570
25903,53574
25912,53579
25919,53584
25926,53591
25932,53598
25938,53605
25943,53613
25947,53622
25950,53631
25952,53640
25954,53649
25954,53658
25954,54018
25954,54027
25952,54036
25950,54046
25947,54054
25943,54063
25938,54071
25932,54079
25926,54086
25919,54092
25912,54098
25903,54102
25895,54106
25886,54110
25877,54112
25868,54113
25858,54114
25666,54114
25657,54113
25648,54112
25638,54110
25630,54106
25621,54102
25613,54098
25605,54092
25598,54086
25592,54079
25587,54071
25582,54063
25578,54054
25574,54046
25572,54036
25571,54027
25570,54018
25570,53658
25571,53649
25572,53640
25574,53631
25578,53622
25582,53613
25587,53605
25592,53598
25598,53591
25605,53584
25613,53579
25621,53574
25630,53570
25638,53567
25648,53564
25657,53563
25666,53562
25858,53562
25868,53563
Z" /> 
</g>
<g >
</g>
<g style="fill:#000000; fill-opacity:1.0; 
stroke:#000000; stroke-width:0; stroke-opacity:1; 
stroke-linecap:round; stroke-linejoin:round;">
<path style="fill:#000000; fill-opacity:1.0; 
stroke:#000000; stroke-width:0; stroke-opacity:1; 
stroke-linecap:round; stroke-linejoin:round;fill-rule:evenodd;"
d="M 30346,50020
30355,50021
30364,50023
30373,50026
30382,50031
30390,50035
30397,50041
30404,50047
30411,50054
30416,50062
30421,50070
30425,50078
30428,50087
30431,50096
30432,50106
30433,50115
30433,50474
30432,50484
30431,50493
30428,50502
30425,50511
30421,50520
30416,50528
30411,50535
30404,50542
30397,50549
30390,50554
30382,50559
30373,50563
30364,50566
30355,50569
30346,50570
30337,50570
30145,50570
30135,50570
30126,50569
30117,50566
30108,50563
30099,50559
30091,50554
30084,50549
30077,50542
30070,50535
30065,50528
30060,50520
30056,50511
30053,50502
30051,50493
30049,50484
30049,50474
30049,50115
30049,50106
30051,50096
30053,50087
30056,50078
30060,50070
30065,50062
30070,50054
30077,50047
30084,50041
30091,50035
30099,50031
30108,50026
30117,50023
30126,50021
30135,50020
30145,50019
30337,50019
30346,50020
Z" /> 
<path style="fill:#000000; fill-opacity:1.0; 
stroke:#000000; stroke-width:0; stroke-opacity:1; 
stroke-linecap:round; stroke-linejoin:round;fill-rule:evenodd;"
d="M 31084,50020
31094,50021
31103,50023
31112,50026
31120,50031
31128,50035
31136,50041
31143,50047
31149,50054
31155,50062
31159,50070
31163,50078
31167,50087
31169,50096
31170,50106
31171,50115
31171,50474
31170,50484
31169,50493
31167,50502
31163,50511
31159,50520
31155,50528
31149,50535
31143,50542
31136,50549
31128,50554
31120,50559
31112,50563
31103,50566
31094,50569
31084,50570
31075,50570
30883,50570
30873,50570
30864,50569
30855,50566
30846,50563
30838,50559
30830,50554
30822,50549
30815,50542
30809,50535
30803,50528
30798,50520
30794,50511
30791,50502
30789,50493
30787,50484
30787,50474
30787,50115
30787,50106
30789,50096
30791,50087
30794,50078
30798,50070
30803,50062
30809,50054
30815,50047
30822,50041
30830,50035
30838,50031
30846,50026
30855,50023
30864,50021
30873,50020
30883,50019
31075,50019
31084,50020
Z" /> 
</g>
<g >
</g>
<g style="fill:#000000; fill-opacity:1.0; 
stroke:#000000; stroke-width:0; stroke-opacity:1; 
stroke-linecap:round; stroke-linejoin:round;">
<path style="fill:#000000; fill-opacity:1.0; 
stroke:#000000; stroke-width:0; stroke-opacity:1; 
stroke-linecap:round; stroke-linejoin:round;fill-rule:evenodd;"
d="M 29608,49134
29617,49135
29626,49137
29635,49141
29644,49145
29652,49150
29659,49155
29666,49161
29673,49168
29678,49176
29683,49184
29687,49193
29690,49201
29693,49211
29694,49220
29694,49229
29694,49589
29694,49598
29693,49607
29690,49616
29687,49625
29683,49634
29678,49642
29673,49649
29666,49656
29659,49663
29652,49668
29644,49673
29635,49677
29626,49680
29617,49683
29608,49684
29598,49685
29406,49685
29397,49684
29388,49683
29379,49680
29370,49677
29361,49673
29353,49668
29346,49663
29339,49656
29332,49649
29327,49642
29322,49634
29318,49625
29315,49616
29312,49607
29311,49598
29311,49589
29311,49229
29311,49220
29312,49211
29315,49201
29318,49193
29322,49184
29327,49176
29332,49168
29339,49161
29346,49155
29353,49150
29361,49145
29370,49141
29379,49137
29388,49135
29397,49134
29406,49133
29598,49133
29608,49134
Z" /> 
<path style="fill:#000000; fill-opacity:1.0; 
stroke:#000000; stroke-width:0; stroke-opacity:1; 
stroke-linecap:round; stroke-linejoin:round;fill-rule:evenodd;"
d="M 28870,49134
28879,49135
28888,49137
28897,49141
28905,49145
28914,49150
28921,49155
28928,49161
28934,49168
28940,49176
28945,49184
28949,49193
28952,49201
28954,49211
28956,49220
28956,49229
28956,49589
28956,49598
28954,49607
28952,49616
28949,49625
28945,49634
28940,49642
28934,49649
28928,49656
28921,49663
28914,49668
28905,49673
28897,49677
28888,49680
28879,49683
28870,49684
28860,49685
28668,49685
28659,49684
28650,49683
28640,49680
28632,49677
28623,49673
28615,49668
28607,49663
28600,49656
28594,49649
28589,49642
28584,49634
28580,49625
28576,49616
28574,49607
28573,49598
28572,49589
28572,49229
28573,49220
28574,49211
28576,49201
28580,49193
28584,49184
28589,49176
28594,49168
28600,49161
28607,49155
28615,49150
28623,49145
28632,49141
28640,49137
28650,49135
28659,49134
28668,49133
28860,49133
28870,49134
Z" /> 
</g>
<g >
</g>
<g style="fill:#000000; fill-opacity:1.0; 
stroke:#000000; stroke-width:0; stroke-opacity:1; 
stroke-linecap:round; stroke-linejoin:round;">
<circle cx="32874" cy="51181.1" r="460.63" /> 
</g>
<g style="fill:#000000; fill-opacity:1.0; 
stroke:#000000; stroke-width:39.3701; stroke-opacity:1; 
stroke-linecap:round; stroke-linejoin:round;">
</g>
<g style="fill:#000000; fill-opacity:1.0; 
stroke:#000000; stroke-width:0; stroke-opacity:1; 
stroke-linecap:round; stroke-linejoin:round;">
<circle cx="30905.5" cy="52165.4" r="460.63" /> 
</g>
<g style="fill:#000000; fill-opacity:1.0; 
stroke:#000000; stroke-width:39.3701; stroke-opacity:1; 
stroke-linecap:round; stroke-linejoin:round;">
</g>
<g style="fill:#000000; fill-opacity:1.0; 
stroke:#000000; stroke-width:0; stroke-opacity:1; 
stroke-linecap:round; stroke-linejoin:round;">
<circle cx="32874" cy="53149.6" r="460.63" /> 
</g>
<g style="fill:#000000; fill-opacity:1.0; 
stroke:#000000; stroke-width:39.3701; stroke-opacity:1; 
stroke-linecap:round; stroke-linejoin:round;">
</g>
<g >
</g>
<g style="fill:#000000; fill-opacity:1.0; 
stroke:#000000; stroke-width:39.3701; stroke-opacity:1; 
stroke-linecap:round; stroke-linejoin:round;">
</g>
<g style="fill:#000000; fill-opacity:1.0; 
stroke:#000000; stroke-width:0; stroke-opacity:1; 
stroke-linecap:round; stroke-linejoin:round;">
<path style="fill:#000000; fill-opacity:1.0; 
stroke:#000000; stroke-width:0; stroke-opacity:1; 
stroke-linecap:round; stroke-linejoin:round;fill-rule:evenodd;"
d="M 31535,48777
33031,48777
33031,49564
31535,49564
31535,48777
Z" /> 
<path style="fill:#000000; fill-opacity:1.0; 
stroke:#000000; stroke-width:0; stroke-opacity:1; 
stroke-linecap:round; stroke-linejoin:round;fill-rule:evenodd;"
d="M 31988,46296
32578,46296
32578,47084
31988,47084
31988,46296
Z" /> 
<path style="fill:#000000; fill-opacity:1.0; 
stroke:#000000; stroke-width:0; stroke-opacity:1; 
stroke-linecap:round; stroke-linejoin:round;fill-rule:evenodd;"
d="M 31082,46296
31673,46296
31673,47084
31082,47084
31082,46296
Z" /> 
<path style="fill:#000000; fill-opacity:1.0; 
stroke:#000000; stroke-width:0; stroke-opacity:1; 
stroke-linecap:round; stroke-linejoin:round;fill-rule:evenodd;"
d="M 32893,46296
33484,46296
33484,47084
32893,47084
32893,46296
Z" /> 
</g>
<g >
</g>
<g >
</g>
<g >
</g>
<g >
</g>
<g >
</g>
<g style="fill:#000000; fill-opacity:1.0; 
stroke:#000000; stroke-width:0; stroke-opacity:1; 
stroke-linecap:round; stroke-linejoin:round;">
<path style="fill:#000000; fill-opacity:1.0; 
stroke:#000000; stroke-width:0; stroke-opacity:1; 
stroke-linecap:round; stroke-linejoin:round;fill-rule:evenodd;"
d="M 35196,49704
34488,49704
34488,48720
35196,48720
35196,49704
Z" /> 
<path style="fill:#000000; fill-opacity:1.0; 
stroke:#000000; stroke-width:0; stroke-opacity:1; 
stroke-linecap:round; stroke-linejoin:round;fill-rule:evenodd;"
d="M 35196,48129
34488,48129
34488,47145
35196,47145
35196,48129
Z" /> 
</g>
<g >
</g>
<g >
</g>
<g style="fill:#000000; fill-opacity:1.0; 
stroke:#000000; stroke-width:0; stroke-opacity:1; 
stroke-linecap:round; stroke-linejoin:round;">
</g>
<g style="fill:#000000; fill-opacity:1.0; 
stroke:#000000; stroke-width:314.961; stroke-opacity:1; 
stroke-linecap:round; stroke-linejoin:round;">
</g>
<g style="fill:#000000; fill-opacity:0.0; 
stroke:#000000; stroke-width:314.961; stroke-opacity:1; 
stroke-linecap:round; stroke-linejoin:round;">
<path d="M31377 46690
L31377 45920
" />
<path d="M30930 45472
L30487 45472
" />
<path d="M31377 45920
L30930 45472
" />
</g>
<g style="fill:#000000; fill-opacity:0.0; 
stroke:#000000; stroke-width:137.795; stroke-opacity:1; 
stroke-linecap:round; stroke-linejoin:round;">
<path d="M27362 45374
L27362 44803
" />
</g>
<g style="fill:#000000; fill-opacity:0.0; 
stroke:#000000; stroke-width:314.961; stroke-opacity:1; 
stroke-linecap:round; stroke-linejoin:round;">
<path d="M26377 44803
L29817 44803
" />
<path d="M29817 44803
L30334 44803
" />
<path d="M30487 44955
L30487 45472
" />
<path d="M30334 44803
L30487 44955
" />
</g>
<g style="fill:#000000; fill-opacity:0.0; 
stroke:#000000; stroke-width:137.795; stroke-opacity:1; 
stroke-linecap:round; stroke-linejoin:round;">
<path d="M26214 47838
L27165 47838
" />
<path d="M23622 50430
L26214 47838
" />
<path d="M28444 46727
L28444 47145
" />
<path d="M28444 47227
L28444 47145
" />
<path d="M27833 47838
L28444 47227
" />
<path d="M27165 47838
L27833 47838
" />
<path d="M29079 46727
L29350 46456
" />
<path d="M28444 46727
L29079 46727
" />
<path d="M29350 45871
L29749 45472
" />
<path d="M29350 46456
L29350 45871
" />
<path d="M25381 52189
L25885 52189
" />
<path d="M23622 50430
L25381 52189
" />
<path d="M29763 46811
L29503 46811
" />
<path d="M30098 46456
L30098 46476
" />
<path d="M30098 46476
L29763 46811
" />
<path d="M28248 48066
L28248 49409
" />
<path d="M28533 49409
L28248 49409
" />
<path d="M28764 49409
L28533 49409
" />
<path d="M36594 51102
L37007 50688
" />
<path d="M36585 51102
L36594 51102
" />
<path d="M37007 50688
L37007 50425
" />
<path d="M29256 48031
L29000 48031
" />
<path d="M29000 48031
L28641 47673
" />
<path d="M29503 46811
L28641 47673
" />
<path d="M28641 47673
L28248 48066
" />
<path d="M31375 49170
L32283 49170
" />
<path d="M31198 49348
L31375 49170
" />
<path d="M31198 50076
L31198 49348
" />
<path d="M30979 50295
L31198 50076
" />
</g>
<g style="fill:#000000; fill-opacity:0.0; 
stroke:#000000; stroke-width:314.961; stroke-opacity:1; 
stroke-linecap:round; stroke-linejoin:round;">
<path d="M34842 47637
L32283 47637
" />
<path d="M32283 46690
L32283 47637
" />
</g>
<g style="fill:#000000; fill-opacity:0.0; 
stroke:#000000; stroke-width:137.795; stroke-opacity:1; 
stroke-linecap:round; stroke-linejoin:round;">
<path d="M30226 48031
L32283 48031
" />
<path d="M29995 48031
L30226 48031
" />
</g>
<g style="fill:#000000; fill-opacity:0.0; 
stroke:#000000; stroke-width:314.961; stroke-opacity:1; 
stroke-linecap:round; stroke-linejoin:round;">
<path d="M32283 47637
L32283 48031
" />
<path d="M32283 48031
L32283 49170
" />
</g>
<g style="fill:#000000; fill-opacity:0.0; 
stroke:#000000; stroke-width:137.795; stroke-opacity:1; 
stroke-linecap:round; stroke-linejoin:round;">
<path d="M27165 46751
L27165 46633
" />
<path d="M28006 45989
L28444 45989
" />
<path d="M27165 46751
L27244 46751
" />
<path d="M27244 46751
L28006 45989
" />
<path d="M27283 46751
L27362 46751
" />
<path d="M26377 45846
L27283 46751
" />
<path d="M26377 45551
L26377 45846
" />
<path d="M25762 53051
L25885 52928
" />
<path d="M25762 53838
L25762 53051
" />
<path d="M30241 50295
L30241 50713
" />
<path d="M30241 50713
L30708 51181
" />
<path d="M30708 51181
L31496 51181
" />
<path d="M31496 51181
L32480 50196
" />
<path d="M34645 51377
L34645 50196
" />
<path d="M32874 53149
L34645 51377
" />
<path d="M32480 50196
L34645 50196
" />
<path d="M35334 50196
L34645 50196
" />
<path d="M36122 49409
L35334 50196
" />
<path d="M33188 46690
L33582 46690
" />
<path d="M37795 49409
L36122 49409
" />
<path d="M37795 47637
L37992 47834
" />
<path d="M37992 47834
L37992 49212
" />
<path d="M37992 49212
L37795 49409
" />
<path d="M33622 46690
L33683 46751
" />
<path d="M33188 46690
L33622 46690
" />
<path d="M33683 46751
L35137 46751
" />
<path d="M35137 46751
L36023 47637
" />
<path d="M36023 47637
L37795 47637
" />
<path d="M30241 49557
L30314 49483
" />
<path d="M30241 50295
L30241 49557
" />
<path d="M29847 48745
L30314 48745
" />
<path d="M29625 48523
L29847 48745
" />
<path d="M29724 47244
L29724 47559
" />
<path d="M29625 47657
L29625 48523
" />
<path d="M29724 47559
L29625 47657
" />
<path d="M29502 49409
L29502 49429
" />
<path d="M29502 49409
L29502 51747
" />
<path d="M29921 52165
L30905 52165
" />
<path d="M29502 51747
L29921 52165
" />
<path d="M32874 51771
L32874 51181
" />
<path d="M30905 52165
L32480 52165
" />
<path d="M32480 52165
L32874 51771
" />
</g>
<g style="fill:#000000; fill-opacity:0.0; 
stroke:#000000; stroke-width:314.961; stroke-opacity:1; 
stroke-linecap:round; stroke-linejoin:round;">
<path d="M25590 45570
L25590 45177
" />
<path d="M23622 48430
L23622 47539
" />
<path d="M23622 47539
L25590 45570
" />
</g>
<g style="fill:#000000; fill-opacity:0.0; 
stroke:#000000; stroke-width:137.795; stroke-opacity:1; 
stroke-linecap:round; stroke-linejoin:round;">
<path d="M24409 51870
L25024 52485
" />
<path d="M23031 51870
L24409 51870
" />
<path d="M25024 52485
L25024 53838
" />
<path d="M23622 48393
L22677 49338
" />
<path d="M22677 51515
L23031 51870
" />
<path d="M22677 49338
L22677 51515
" />
</g>
<g style="fill:#000000; fill-opacity:0.0; 
stroke:#000000; stroke-width:314.961; stroke-opacity:1; 
stroke-linecap:round; stroke-linejoin:round;">
<path d="M36181 48425
L35492 49114
" />
<path d="M37007 48425
L36181 48425
" />
<path d="M34940 49114
L34842 49212
" />
<path d="M35492 49114
L34940 49114
" />
</g>
<g >
</g>
<g style="fill:#000000; fill-opacity:0.0; 
stroke:#000000; stroke-width:314.961; stroke-opacity:1; 
stroke-linecap:round; stroke-linejoin:round;">
</g>
<g style="fill:#000000; fill-opacity:1.0; 
stroke:#000000; stroke-width:100; stroke-opacity:1; 
stroke-linecap:round; stroke-linejoin:round;">
<path style="fill:#000000; fill-opacity:1.0; 
stroke:#000000; stroke-width:100; stroke-opacity:1; 
stroke-linecap:round; stroke-linejoin:round;fill-rule:evenodd;"
d="M 29389,46889
29358,46927
29334,46970
29320,47017
29315,47066
29315,47421
29320,47470
29334,47517
29337,47521
29329,47534
29311,47594
29310,47605
29294,47605
29257,47643
29257,48031
29264,48031
29264,48031
29257,48031
29257,48419
29294,48457
29307,48457
29307,48507
29305,48523
29309,48568
29311,48586
29322,48622
29329,48646
29359,48701
29370,48714
29399,48750
29411,48760
29534,48882
29406,48882
29339,48889
29274,48909
29214,48941
29161,48984
29118,49036
29096,49077
29096,49076
29082,49049
29063,49026
29040,49008
29014,48994
28986,48985
28956,48982
28802,48983
28764,49021
28764,49409
28772,49409
28772,49409
28764,49409
28764,49797
28802,49835
28956,49836
28986,49833
29014,49824
29040,49810
29063,49791
29082,49768
29096,49742
29096,49741
29118,49781
29161,49834
29184,49853
29184,51731
29182,51747
29188,51803
29188,51809
29199,51846
29206,51869
29236,51925
29247,51938
29276,51973
29288,51983
29684,52379
29694,52391
29706,52401
29743,52431
29756,52438
29798,52461
29858,52479
29905,52484
29905,52484
29921,52485
29936,52484
30268,52484
30275,52501
30353,52618
30452,52717
30568,52795
30698,52848
30835,52875
30975,52875
31112,52848
31242,52795
31358,52717
31457,52618
31535,52501
31542,52484
32464,52484
32480,52485
32495,52484
32495,52484
32542,52479
32602,52461
32658,52431
32706,52391
32716,52379
33088,52008
33100,51998
33140,51949
33153,51925
33170,51894
33188,51834
33189,51819
33210,51810
33327,51733
33425,51634
33503,51517
33557,51388
33584,51251
33584,51111
33557,50973
33503,50844
33425,50728
33327,50629
33210,50551
33124,50515
34326,50515
34326,51245
33099,52473
33081,52466
32944,52438
32804,52438
32666,52466
32537,52519
32421,52597
32322,52696
32244,52812
32190,52942
32163,53079
32163,53219
32190,53356
32244,53486
32322,53602
32421,53701
32537,53779
32666,53832
32804,53860
32944,53860
33081,53832
33210,53779
33327,53701
33425,53602
33503,53486
33557,53356
33576,53259
36127,53259
36127,53433
36161,53603
36228,53763
36324,53907
36446,54029
36591,54126
36751,54192
36921,54226
37094,54226
37264,54192
37424,54126
37568,54029
37691,53907
37787,53763
37853,53603
37887,53433
37887,53259
37853,53089
37787,52929
37691,52785
37568,52662
37424,52566
37264,52500
37094,52466
36921,52466
36751,52500
36591,52566
36446,52662
36324,52785
36228,52929
36161,53089
36127,53259
33576,53259
33584,53219
33584,53079
33557,52942
33550,52924
34860,51614
34872,51604
34901,51569
34912,51555
34936,51510
34941,51500
34959,51440
34964,51393
34964,51393
34966,51377
34964,51362
34964,51120
36109,51120
36109,52289
38300,52289
38300,51120
36109,51120
34964,51120
34964,50869
36564,50869
36616,50963
36729,51029
36852,51072
36981,51090
37112,51082
37238,51049
37355,50992
37398,50963
37451,50869
37007,50425
36564,50869
34964,50869
34964,50515
35318,50515
35334,50517
35350,50515
35350,50515
35397,50511
35457,50492
35512,50463
35561,50423
35571,50411
35583,50399
36342,50399
36350,50529
36383,50655
36440,50773
36469,50816
36563,50868
37007,50425
37008,50425
37451,50868
37546,50816
37612,50703
37654,50580
37672,50451
37665,50320
37632,50194
37575,50077
37546,50034
37451,49981
37008,50425
37007,50425
36563,49981
36469,50034
36403,50146
36360,50270
36342,50399
35583,50399
36001,49981
36564,49981
37007,50424
37451,49981
37398,49886
37286,49820
37163,49778
37033,49760
36903,49768
36777,49800
36660,49857
36616,49886
36564,49981
36001,49981
36254,49728
37779,49728
37795,49729
37810,49728
37810,49728
37857,49723
37917,49705
37973,49675
38021,49636
38031,49623
38206,49449
38218,49439
38258,49390
38288,49335
38303,49285
38303,54444
26427,54444
26427,54156
26749,54156
26797,54246
26903,54308
27019,54348
27140,54365
27263,54358
27382,54327
27492,54273
27533,54246
27581,54156
27165,53740
26749,54156
26427,54156
26427,53715
26539,53715
26547,53838
26578,53956
26631,54067
26658,54107
26749,54155
27165,53740
27165,53740
27581,54155
27671,54107
27733,54001
27773,53886
27790,53764
27783,53642
27752,53523
27698,53412
27671,53372
27581,53324
27165,53740
27165,53740
26749,53324
26658,53372
26596,53478
26556,53594
26539,53715
26427,53715
26427,53324
26749,53324
27165,53739
27581,53324
27533,53233
27427,53171
27311,53131
27189,53114
27067,53122
26948,53153
26838,53206
26797,53233
26749,53324
26427,53324
26427,50443
27952,50443
27962,50442
27971,50439
27980,50435
27988,50429
27994,50421
27998,50412
28001,50403
28002,50393
28002,49685
28421,49685
28424,49714
28433,49742
28447,49768
28465,49791
28488,49810
28515,49824
28543,49833
28572,49836
28726,49835
28764,49797
28764,49409
28460,49409
28422,49447
28421,49685
28002,49685
28002,49133
28421,49133
28422,49371
28460,49409
28764,49409
28764,49021
28726,48983
28572,48982
28543,48985
28515,48994
28488,49008
28465,49026
28447,49049
28433,49076
28424,49104
28421,49133
28002,49133
28002,48307
28913,48307
28916,48336
28925,48364
28939,48391
28958,48413
28981,48432
29007,48446
29035,48455
29064,48458
29219,48457
29256,48419
29256,48031
28952,48031
28914,48069
28913,48307
28002,48307
28002,48109
28011,48105
28060,48065
28070,48052
28367,47755
28913,47755
28914,47993
28952,48031
29256,48031
29256,47643
29219,47605
29064,47604
29035,47607
29007,47616
28981,47630
28958,47649
28939,47671
28925,47698
28916,47726
28913,47755
28367,47755
28659,47463
28671,47453
28711,47405
28740,47349
28759,47289
28763,47242
28763,47242
28765,47227
28763,47211
28763,47140
28817,47111
28869,47068
28888,47046
29064,47046
29079,47047
29095,47046
29095,47046
29142,47041
29202,47023
29257,46993
29306,46953
29316,46941
29373,46885
29394,46885
29389,46889
Z" /> 
<path style="fill:#000000; fill-opacity:1.0; 
stroke:#000000; stroke-width:100; stroke-opacity:1; 
stroke-linecap:round; stroke-linejoin:round;fill-rule:evenodd;"
d="M 30145,45897
30198,45940
30258,45972
30323,45992
30391,45999
30583,45999
30650,45992
30716,45972
30776,45940
30801,45919
30960,46078
30943,46087
30905,46119
30873,46157
30850,46200
30836,46247
30831,46296
30831,47084
30836,47133
30850,47180
30873,47223
30905,47261
30943,47293
30986,47316
31033,47330
31082,47335
31673,47335
31722,47330
31769,47316
31812,47293
31830,47278
31848,47293
31875,47307
31875,47617
31874,47637
31875,47657
31875,47712
30408,47712
30379,47658
30336,47606
30283,47563
30223,47531
30158,47511
30117,47507
30128,47470
30133,47421
30133,47066
30128,47017
30113,46970
30090,46927
30059,46889
30021,46858
29978,46834
29930,46820
29881,46815
29680,46815
29685,46811
29716,46773
29739,46729
29754,46682
29759,46633
29789,46633
29792,46663
29801,46691
29815,46717
29834,46740
29856,46759
29883,46773
29911,46782
29940,46784
30060,46784
30098,46746
30098,46456
30098,46456
30098,46746
30136,46784
30255,46784
30285,46782
30313,46773
30339,46759
30362,46740
30381,46717
30395,46691
30404,46663
30407,46633
30406,46494
30368,46456
30098,46456
30098,46456
29828,46456
29790,46494
29789,46633
29759,46633
29759,46279
29789,46279
29790,46418
29828,46456
30098,46456
30098,46166
30098,46166
30098,46456
30368,46456
30406,46418
30407,46279
30404,46250
30395,46221
30381,46195
30362,46172
30339,46153
30313,46139
30285,46131
30255,46128
30136,46129
30098,46166
30098,46166
30060,46129
29940,46128
29911,46131
29883,46139
29856,46153
29834,46172
29815,46195
29801,46221
29792,46250
29789,46279
29759,46279
29754,46230
29739,46183
29716,46139
29685,46101
29669,46088
29669,46003
29673,45999
29844,45999
29912,45992
29977,45972
30037,45940
30090,45897
30118,45863
30145,45897
Z" /> 
<path style="fill:#000000; fill-opacity:1.0; 
stroke:#000000; stroke-width:100; stroke-opacity:1; 
stroke-linecap:round; stroke-linejoin:round;fill-rule:evenodd;"
d="M 25954,45757
25968,45804
25991,45848
26023,45886
26061,45917
26067,45920
26077,45955
26081,45969
26111,46024
26133,46051
26151,46073
26163,46083
26776,46695
26776,47007
26781,47056
26795,47104
26818,47147
26849,47185
26864,47197
26799,47236
26708,47317
26634,47414
26581,47524
26550,47642
26580,47739
27165,47739
27165,47732
27165,47732
27165,47739
27173,47739
27173,47740
27165,47740
27165,48325
27262,48355
27310,48345
27425,48305
27509,48257
27509,49950
25984,49950
25974,49950
25965,49953
25956,49958
25948,49964
25942,49972
25938,49980
25935,49990
25934,50000
25934,51847
25923,51847
25886,51885
25886,52189
25893,52189
25893,52190
25886,52190
25886,52198
25885,52198
25885,52190
25497,52190
25459,52227
25459,52381
25462,52411
25470,52439
25484,52465
25503,52488
25526,52507
25552,52521
25553,52521
25513,52543
25460,52586
25417,52639
25385,52699
25365,52764
25359,52832
25359,53024
25365,53091
25385,53156
25417,53216
25443,53249
25443,53394
25421,53413
25393,53447
25366,53413
25343,53394
25343,52500
25345,52485
25343,52469
25338,52422
25324,52376
25320,52362
25291,52307
25261,52270
25251,52258
25239,52248
24988,51998
25459,51998
25459,52152
25497,52189
25885,52189
25885,51885
25848,51847
25610,51846
25580,51849
25552,51858
25526,51872
25503,51891
25484,51914
25470,51940
25462,51968
25459,51998
24988,51998
24646,51655
24636,51643
24587,51603
24532,51574
24471,51555
24455,51554
24455,50923
24283,50923
24284,50905
24284,50431
24246,50393
23622,50393
23622,50401
23621,50401
23621,50393
23613,50393
23613,50393
23621,50393
23621,49769
23622,49769
23622,50393
24246,50393
24284,50355
24284,49881
24282,49852
24273,49824
24259,49797
24240,49775
24217,49756
24191,49742
24163,49733
24133,49730
23659,49731
23622,49769
23621,49769
23584,49731
23110,49730
23080,49733
23052,49742
23026,49756
23003,49775
22996,49783
22996,49470
23357,49108
23399,49126
23547,49155
23697,49155
23844,49126
23982,49068
24107,48985
24213,48879
24297,48754
24354,48615
24383,48468
24383,48318
24354,48171
24297,48032
24213,47908
24143,47837
26550,47837
26581,47955
26634,48065
26708,48163
26799,48244
26904,48305
27020,48345
27067,48355
27165,48325
27165,47740
26580,47740
26550,47837
24143,47837
24107,47801
24029,47749
24029,47708
25864,45873
25880,45860
25897,45838
25930,45798
25954,45755
25954,45757
Z" /> 
</g>
</g>
<g style="fill:#FFFFFF; fill-opacity:1.0; 
stroke:#FFFFFF; stroke-width:100; stroke-opacity:1; 
stroke-linecap:round; stroke-linejoin:round;">
</g>
<g style="fill:#FFFFFF; fill-opacity:1.0; 
stroke:#FFFFFF; stroke-width:0; stroke-opacity:1; 
stroke-linecap:round; stroke-linejoin:round;">
<circle cx="27165.4" cy="47740.2" r="236.22" /> 
</g>
<g style="fill:#FFFFFF; fill-opacity:1.0; 
stroke:#FFFFFF; stroke-width:39.3701; stroke-opacity:1; 
stroke-linecap:round; stroke-linejoin:round;">
</g>
<g style="fill:#FFFFFF; fill-opacity:1.0; 
stroke:#FFFFFF; stroke-width:0; stroke-opacity:1; 
stroke-linecap:round; stroke-linejoin:round;">
<circle cx="27165.4" cy="53740.2" r="236.22" /> 
</g>
<g style="fill:#FFFFFF; fill-opacity:1.0; 
stroke:#FFFFFF; stroke-width:39.3701; stroke-opacity:1; 
stroke-linecap:round; stroke-linejoin:round;">
</g>
<g style="fill:#FFFFFF; fill-opacity:1.0; 
stroke:#FFFFFF; stroke-width:0; stroke-opacity:1; 
stroke-linecap:round; stroke-linejoin:round;">
<circle cx="23622" cy="50393.7" r="255.906" /> 
</g>
<g style="fill:#FFFFFF; fill-opacity:1.0; 
stroke:#FFFFFF; stroke-width:39.3701; stroke-opacity:1; 
stroke-linecap:round; stroke-linejoin:round;">
</g>
<g style="fill:#FFFFFF; fill-opacity:1.0; 
stroke:#FFFFFF; stroke-width:0; stroke-opacity:1; 
stroke-linecap:round; stroke-linejoin:round;">
<circle cx="23622" cy="48393.7" r="255.906" /> 
</g>
<g style="fill:#FFFFFF; fill-opacity:1.0; 
stroke:#FFFFFF; stroke-width:39.3701; stroke-opacity:1; 
stroke-linecap:round; stroke-linejoin:round;">
</g>
<g style="fill:#FFFFFF; fill-opacity:1.0; 
stroke:#FFFFFF; stroke-width:0; stroke-opacity:1; 
stroke-linecap:round; stroke-linejoin:round;">
<circle cx="37007.9" cy="50425.2" r="255.906" /> 
</g>
<g style="fill:#FFFFFF; fill-opacity:1.0; 
stroke:#FFFFFF; stroke-width:39.3701; stroke-opacity:1; 
stroke-linecap:round; stroke-linejoin:round;">
</g>
<g style="fill:#FFFFFF; fill-opacity:1.0; 
stroke:#FFFFFF; stroke-width:0; stroke-opacity:1; 
stroke-linecap:round; stroke-linejoin:round;">
<circle cx="37007.9" cy="48425.2" r="255.906" /> 
</g>
<g style="fill:#FFFFFF; fill-opacity:1.0; 
stroke:#FFFFFF; stroke-width:39.3701; stroke-opacity:1; 
stroke-linecap:round; stroke-linejoin:round;">
</g>
<g style="fill:#FFFFFF; fill-opacity:1.0; 
stroke:#FFFFFF; stroke-width:0; stroke-opacity:1; 
stroke-linecap:round; stroke-linejoin:round;">
<circle cx="32874" cy="51181.1" r="255.906" /> 
</g>
<g style="fill:#FFFFFF; fill-opacity:1.0; 
stroke:#FFFFFF; stroke-width:39.3701; stroke-opacity:1; 
stroke-linecap:round; stroke-linejoin:round;">
</g>
<g style="fill:#FFFFFF; fill-opacity:1.0; 
stroke:#FFFFFF; stroke-width:0; stroke-opacity:1; 
stroke-linecap:round; stroke-linejoin:round;">
<circle cx="30905.5" cy="52165.4" r="255.906" /> 
</g>
<g style="fill:#FFFFFF; fill-opacity:1.0; 
stroke:#FFFFFF; stroke-width:39.3701; stroke-opacity:1; 
stroke-linecap:round; stroke-linejoin:round;">
</g>
<g style="fill:#FFFFFF; fill-opacity:1.0; 
stroke:#FFFFFF; stroke-width:0; stroke-opacity:1; 
stroke-linecap:round; stroke-linejoin:round;">
<circle cx="32874" cy="53149.6" r="255.906" /> 
</g>
<g style="fill:#FFFFFF; fill-opacity:1.0; 
stroke:#FFFFFF; stroke-width:39.3701; stroke-opacity:1; 
stroke-linecap:round; stroke-linejoin:round;">
</g>
<g style="fill:#FFFFFF; fill-opacity:1.0; 
stroke:#FFFFFF; stroke-width:0; stroke-opacity:1; 
stroke-linecap:round; stroke-linejoin:round;">
<circle cx="37007.9" cy="53346.5" r="629.921" /> 
</g>
<g style="fill:#FFFFFF; fill-opacity:1.0; 
stroke:#FFFFFF; stroke-width:39.3701; stroke-opacity:1; 
stroke-linecap:round; stroke-linejoin:round;">
</g>
<g style="fill:#FFFFFF; fill-opacity:1.0; 
stroke:#FFFFFF; stroke-width:0; stroke-opacity:1; 
stroke-linecap:round; stroke-linejoin:round;">
<circle cx="37007.9" cy="45472.4" r="629.921" /> 
</g>
<g style="fill:#FFFFFF; fill-opacity:1.0; 
stroke:#FFFFFF; stroke-width:39.3701; stroke-opacity:1; 
stroke-linecap:round; stroke-linejoin:round;">
</g>
<g style="fill:#FFFFFF; fill-opacity:1.0; 
stroke:#FFFFFF; stroke-width:0; stroke-opacity:1; 
stroke-linecap:round; stroke-linejoin:round;">
<circle cx="23228.3" cy="45472.4" r="629.921" /> 
</g>
<g style="fill:#FFFFFF; fill-opacity:1.0; 
stroke:#FFFFFF; stroke-width:39.3701; stroke-opacity:1; 
stroke-linecap:round; stroke-linejoin:round;">
</g>
<g style="fill:#FFFFFF; fill-opacity:1.0; 
stroke:#FFFFFF; stroke-width:0; stroke-opacity:1; 
stroke-linecap:round; stroke-linejoin:round;">
<circle cx="23228.3" cy="53346.5" r="629.921" /> 
</g>
<g style="fill:#FFFFFF; fill-opacity:1.0; 
stroke:#FFFFFF; stroke-width:39.3701; stroke-opacity:1; 
stroke-linecap:round; stroke-linejoin:round;">
</g>
<g style="fill:#000000; fill-opacity:1.0; 
stroke:#000000; stroke-width:39.3701; stroke-opacity:1; 
stroke-linecap:round; stroke-linejoin:round;">
</g> 
</svg>
